PathFileType	4	(X/Y/Z)	s05c0001.trc
DataRate	CameraRate	NumFrames	NumMarkers	Units	OrigDataRate	OrigDataStartFrame	OrigNumFrames
200	200	4	49	mm	200	500	2000
Frame#	Time	racr			lacr			c7			jug			rlel			rdr			llel			ldr			s2			lic			ric			lasi			rasi			rpsi			lpsi			rgt			lgt			rth1			rth2			rth3			rth4			rlfc			rmfc			rsh1			rsh2			rsh3			rsh4			rlmal			rmmal			rcal			rtoe			rmt5			rmt1			lth1			lth2			lth4			lth3			llfc			lmfc			lsh1			lsh2			lsh3			lsh4			llmal			lmmal			lcal			ltoe			lmt1			lmt5			
		X1	Y1	Z1	X2	Y2	Z2	X3	Y3	Z3	X4	Y4	Z4	X5	Y5	Z5	X6	Y6	Z6	X7	Y7	Z7	X8	Y8	Z8	X9	Y9	Z9	X10	Y10	Z10	X11	Y11	Z11	X12	Y12	Z12	X13	Y13	Z13	X14	Y14	Z14	X15	Y15	Z15	X16	Y16	Z16	X17	Y17	Z17	X18	Y18	Z18	X19	Y19	Z19	X20	Y20	Z20	X21	Y21	Z21	X22	Y22	Z22	X23	Y23	Z23	X24	Y24	Z24	X25	Y25	Z25	X26	Y26	Z26	X27	Y27	Z27	X28	Y28	Z28	X29	Y29	Z29	X30	Y30	Z30	X31	Y31	Z31	X32	Y32	Z32	X33	Y33	Z33	X34	Y34	Z34	X35	Y35	Z35	X36	Y36	Z36	X37	Y37	Z37	X38	Y38	Z38	X39	Y39	Z39	X40	Y40	Z40	X41	Y41	Z41	X42	Y42	Z42	X43	Y43	Z43	X44	Y44	Z44	X45	Y45	Z45	X46	Y46	Z46	X47	Y47	Z47	X48	Y48	Z48	X49	Y49	Z49	
500	2.5000	268.242249	1528.184937	348.650421	255.781952	1534.928589	2.236771	202.034973	1571.137451	171.526535	345.300903	1484.087280	170.417526	236.163391	1281.770874	533.619263	305.644592	1136.910400	742.384460	201.668686	1292.187256	-193.647507	234.108429	1156.781860	-431.053406	177.652039	1035.676025	180.974716	318.955780	1095.239136	31.225166	322.019012	1076.402954	316.943573	371.900391	1029.505615	63.399937	378.622589	1020.222107	284.751343	201.377823	1068.189209	224.186554	198.738403	1072.161987	134.991730	272.819611	923.182434	334.872131	245.067047	953.848816	10.747893	276.095612	824.868469	351.052338	287.993469	735.949280	350.074554	253.546082	655.839966	338.213379	324.469604	732.246216	341.430847	256.022766	507.408600	312.500305	248.578094	506.758484	211.535995	202.746277	410.076233	340.107178	217.917297	322.482422	331.025543	190.044495	242.125137	323.715576	250.265045	323.000153	308.234833	187.169510	109.595856	305.781921	212.915695	124.598770	227.885574	136.830551	62.404781	249.254684	424.696808	81.019188	309.452728	317.333008	44.848106	355.997192	350.604767	47.214024	242.551605	262.294159	822.027954	-10.614984	284.502167	739.289612	-4.613765	320.494263	739.027161	7.589924	259.152771	652.511353	6.443020	246.864059	516.836914	39.132862	239.740341	509.147888	139.041992	195.765259	400.151154	12.996964	210.734192	314.097626	23.056904	179.171860	231.175461	27.325098	242.973358	313.930756	43.579811	183.243256	108.865105	41.887302	211.878754	127.604980	115.235168	136.945419	57.425781	94.078857	425.066254	79.376465	39.361870	351.274261	48.186260	106.043274	312.842712	38.252934	-5.430744	
501	2.5050	268.257111	1528.181763	348.648651	255.772507	1534.921631	2.222587	202.042816	1571.147339	171.511353	345.289368	1484.085571	170.417267	236.164948	1281.768555	533.616455	305.645569	1136.893799	742.372742	201.657547	1292.193237	-193.637543	234.094955	1156.767456	-431.053741	177.630386	1035.669067	180.970856	318.933777	1095.232788	31.217558	322.008270	1076.401855	316.930450	371.891907	1029.505005	63.406822	378.624847	1020.211548	284.755890	201.358337	1068.189941	224.188232	198.726273	1072.173584	135.013580	272.812653	923.166931	334.874664	245.057480	953.860107	10.740408	276.082825	824.874695	351.056519	287.983826	735.949707	350.086670	253.517136	655.837708	338.209961	324.463898	732.257019	341.446533	256.018921	507.408112	312.498291	248.572083	506.765472	211.529495	202.731232	410.079956	340.113220	217.943222	322.460083	331.023407	190.055038	242.126282	323.728363	250.261642	322.989075	308.238342	187.174118	109.593765	305.775848	212.901810	124.597839	227.872696	136.819000	62.416561	249.249771	424.685181	81.015709	309.458130	317.308380	44.845779	356.002441	350.586487	47.198578	242.551941	262.280670	822.033386	-10.615200	284.504700	739.280701	-4.612689	320.482239	739.037354	7.575669	259.148468	652.508728	6.457596	246.863632	516.827209	39.142193	239.714355	509.163696	139.051727	195.762177	400.159790	13.010139	210.729584	314.133575	23.045654	179.177383	231.186462	27.321775	242.979294	313.928497	43.573944	183.237091	108.871742	41.899166	211.886642	127.591660	115.234138	136.944016	57.414600	94.080200	425.062347	79.386284	39.358292	351.289459	48.202980	106.044708	312.844604	38.261059	-5.442338	
502	2.5100	268.229340	1528.182495	348.649933	255.771698	1534.925415	2.222322	202.012787	1571.147339	171.533844	345.283142	1484.086426	170.420105	236.173401	1281.819702	533.668884	305.672119	1136.877441	742.360413	201.648010	1292.180298	-193.656830	234.053757	1156.734497	-431.051697	177.635284	1035.673462	180.983780	318.936768	1095.224609	31.222483	321.987579	1076.401123	316.939331	371.885010	1029.509521	63.413506	378.601654	1020.220459	284.754547	201.358948	1068.197144	224.205185	198.722015	1072.191406	135.000412	272.804840	923.180542	334.878601	245.053329	953.858032	10.751061	276.086334	824.872620	351.056793	287.964996	735.939758	350.076569	253.519852	655.865295	338.227905	324.447754	732.247620	341.445892	255.995407	507.412537	312.498352	248.562454	506.757385	211.540054	202.717392	410.074707	340.108398	217.898117	322.471283	331.023407	190.033142	242.131851	323.730469	250.251740	322.983582	308.234009	187.168198	109.599960	305.780548	212.899612	124.602867	227.872726	136.808182	62.413490	249.257004	424.695831	81.017082	309.465698	317.317322	44.851299	356.002655	350.584778	47.212288	242.555313	262.287659	822.027832	-10.612000	284.499847	739.275940	-4.598889	320.491364	739.037964	7.594351	259.145660	652.493347	6.467029	246.865631	516.832764	39.142746	239.711273	509.151489	139.076309	195.756485	400.146667	13.017546	210.729187	314.131226	23.050652	179.175964	231.176743	27.328125	242.974670	313.935394	43.580784	183.249496	108.859207	41.911240	211.897797	127.590843	115.229469	136.943008	57.416420	94.078087	425.058319	79.378563	39.365173	351.251923	48.185287	106.039558	312.845215	38.258987	-5.438828	
503	2.5150	268.232391	1528.173828	348.640411	255.771271	1534.914062	2.214965	202.017227	1571.147461	171.505692	345.276154	1484.092896	170.420898	236.191238	1281.748535	533.599854	305.685089	1136.874023	742.342773	201.639053	1292.180420	-193.657700	234.050552	1156.717041	-431.052643	177.630005	1035.680786	180.972763	318.929108	1095.227417	31.220673	321.960510	1076.416992	316.949982	371.875610	1029.510132	63.416241	378.591492	1020.221069	284.763947	201.340210	1068.200684	224.202469	198.703613	1072.191650	135.008133	272.785645	923.180176	334.873627	245.039612	953.852112	10.765802	276.049835	824.870728	351.060394	287.944397	735.934937	350.090210	253.517288	655.861755	338.221039	324.444336	732.240295	341.442596	255.980850	507.418121	312.492889	248.558121	506.763458	211.538696	202.725983	410.078888	340.114349	217.889664	322.481812	331.019470	190.028671	242.118790	323.723541	250.243500	322.988129	308.242676	187.186691	109.598022	305.795471	212.901978	124.602982	227.884918	136.817352	62.407082	249.259064	424.702942	81.011864	309.461487	317.308960	44.859180	355.996246	350.604767	47.214020	242.551605	262.268066	822.035767	-10.598587	284.498779	739.282776	-4.575115	320.479736	739.028076	7.608848	259.158997	652.493042	6.469114	246.850281	516.841125	39.159756	239.705154	509.140289	139.061157	195.756439	400.147156	13.017428	210.726227	314.110046	23.052258	179.164490	231.192352	27.328512	242.968185	313.921204	43.586849	183.239685	108.859894	41.897797	211.917236	127.552452	115.232834	136.944122	57.414150	94.086670	425.052429	79.380470	39.365295	351.259338	48.190880	106.045013	312.843750	38.266315	-5.438353	
